<?xml version="1.0" encoding="UTF-8"?>
<svg version="1.1" xmlns="http://www.w3.org/2000/svg" width="5634" height="1876">
<path d="M0 0 C0.88052032 0.00060425 1.76104065 0.0012085 2.66824341 0.00183105 C83.70587469 0.151013 162.47433136 17.58152053 340.25 111.1875 C341.84134766 112.34572266 341.84134766 112.34572266 343.46484375 113.52734375 C346.42410264 115.71040359 349.34732508 117.92986395 352.25 120.1875 C353.05179688 120.80882812 353.85359375 121.43015625 354.6796875 122.0703125 C367.28877157 132.49789414 374.57183055 147.17479605 377.25 163.1875 C378.94735693 182.11878177 375.08015274 199.30608336 363.375 214.5625 C351.36959609 228.61873106 335.70087438 237.27878886 317.25 239.1875 C292.86435025 241.0582699 276.01823668 229.91358951 257.45751953 215.84033203 C194.99242451 169.07095653 116.65366594 141.74726522 39.25 135.1875 C38.24356445 135.09992432 37.23712891 135.01234863 36.20019531 134.92211914 C24.59570572 134.02497205 13.0084433 133.98757467 1.375 134 C-0.19152817 134.00090637 -0.19152817 134.00090637 -1.78970337 134.00183105 C-17.2022692 134.02604167 -32.43644134 134.28654214 -47.75 136.1875 C-48.82523926 136.31640625 -49.90047852 136.4453125 -51.00830078 136.578125 C-77.74514251 139.86366493 -103.99028886 145.30633002 -129.75 153.1875 C-130.72179199 153.48350098 -131.69358398 153.77950195 -132.69482422 154.08447266 C-175.8109537 167.40133494 -217.15672505 187.7669417 -253.75 214.1875 C-254.50474609 214.72729492 -255.25949219 215.26708984 -256.03710938 215.82324219 C-266.7126874 223.47392927 -276.96112932 231.42987177 -286.75 240.1875 C-287.67425781 241.0125 -288.59851563 241.8375 -289.55078125 242.6875 C-291.12948605 244.10569915 -292.7045808 245.52794542 -294.2734375 246.95703125 C-295.65782986 248.20385781 -297.04892871 249.44366985 -298.46362305 250.65600586 C-304.17295373 255.56045912 -309.50389545 260.79239272 -314.8125 266.125 C-315.67166016 266.98029297 -316.53082031 267.83558594 -317.41601562 268.71679688 C-322.4028738 273.71127439 -327.17686812 278.81280846 -331.75 284.1875 C-332.62722399 285.19694509 -333.50480152 286.2060831 -334.3828125 287.21484375 C-398.1747923 361.70547847 -435.01153293 455.56964912 -440.75 562.1875 C-440.77046387 563.07179688 -440.79092773 563.95609375 -440.81201172 564.8671875 C-442.17452888 631.34901638 -429.0248802 698.17552393 -400.97412109 758.54541016 C-399.87349401 760.9209559 -398.80042743 763.30629438 -397.73828125 765.69921875 C-379.7410939 805.76533408 -353.25514137 841.88660919 -323.75 874.1875 C-322.87472656 875.15558594 -321.99945312 876.12367188 -321.09765625 877.12109375 C-313.38628621 885.62850252 -305.52897929 893.95680853 -296.7890625 901.42578125 C-294.5230777 903.38355739 -292.32856506 905.40978948 -290.125 907.4375 C-284.46334404 912.54426166 -278.49555735 917.2073815 -272.45996094 921.85839844 C-270.93086809 923.04691663 -269.42106997 924.26016253 -267.9140625 925.4765625 C-249.88033585 939.85413635 -229.98849227 952.19975942 -209.75 963.1875 C-208.92967285 963.64141113 -208.1093457 964.09532227 -207.26416016 964.56298828 C-126.32409585 1009.28677015 -29.61010791 1024.75926723 122.1875 999.4375 C171.54729941 985.15672366 220.48080806 962.80699128 261.22265625 931.12109375 C279.18725457 917.15952395 296.99524689 908.9676349 320.25 911.1875 C338.48347052 913.90449314 354.37409952 923.74372687 365.4375 938.42578125 C373.48060929 950.68112234 377.80383795 962.96317586 377.625 977.6875 C377.63660156 978.64269531 377.64820313 979.59789062 377.66015625 980.58203125 C377.59645914 996.2727529 370.98085803 1012.32331789 360.11376953 1023.70141602 C296.95365009 1085.59421169 197.15278845 1122.94162308 -9.89257812 1150.171875 C-89.78598082 1149.18094908 -169.9045376 1130.78433609 -257.75 1089.1875 C-258.7797998 1088.67461426 -259.80959961 1088.16172852 -260.87060547 1087.63330078 C-306.88816729 1064.56341235 -349.35275219 1034.73381615 -387.0690918 999.72485352 C-388.35002969 998.55331163 -389.6427512 997.39463983 -390.94067383 996.24194336 C-396.99315815 990.86202378 -402.80623091 985.28732572 -408.51928711 979.54858398 C-409.94337492 978.11910283 -411.37278044 976.69509489 -412.80273438 975.27148438 C-417.99605307 970.07092761 -422.97347526 964.77096246 -427.75 959.1875 C-429.20445517 957.57981627 -430.66220895 955.97510285 -432.125 954.375 C-436.85576093 949.12569023 -441.31997052 943.69126055 -445.75 938.1875 C-446.67538408 937.05436303 -447.60118393 935.92156551 -448.52734375 934.7890625 C-460.88593753 919.60347381 -472.1308551 903.63004694 -482.75 887.1875 C-483.25466797 886.40632813 -483.75933594 885.62515625 -484.27929688 884.8203125 C-528.50567328 815.88739795 -557.37485647 737.64708172 -573.953125 592.734375 C-573.96019264 591.3940172 -573.9673253 590.05365975 -573.97451782 588.71330261 C-573.9940293 584.45469604 -573.99921014 580.19614709 -574 575.9375 C-574.00044186 574.84684172 -574.00044186 574.84684172 -574.00089264 573.73414993 C-574.0023526 551.41504526 -573.67159219 529.34552078 -570.75 507.1875 C-570.54921084 505.61492233 -570.348532 504.04233057 -570.14794922 502.46972656 C-558.63348399 413.4804889 -527.42872829 328.42515138 -442.28125 208.15234375 C-439.96141634 205.43513118 -437.72556534 202.66941319 -435.5 199.875 C-424.96753928 187.01623926 -413.03854185 175.38029 -401.3125 163.625 C-400.70272308 163.01254425 -400.09294617 162.4000885 -399.46469116 161.76907349 C-393.06999437 155.35309364 -386.671293 149.04052978 -379.75 143.1875 C-378.59274138 142.16667608 -377.43777789 141.14324421 -376.28515625 140.1171875 C-367.84781071 132.67268374 -359.12203803 125.72564704 -350.11669922 118.98266602 C-347.8217314 117.24190901 -345.55425465 115.46837316 -343.28631592 113.69265747 C-336.32326665 108.26433653 -329.13933009 103.25084854 -321.77587891 98.38256836 C-319.87901817 97.12765831 -317.98806959 95.86420542 -316.09765625 94.59960938 C-243.4716014 46.22387344 -159.94425987 15.60876289 0 0 Z " fill="#FFFFFF" transform="translate(937.75,362.8125)"/>
<path d="M0 0 C1.66653122 0.00273422 1.66653122 0.00273422 3.36672974 0.00552368 C21.06472439 0.05421993 38.41012342 0.67825352 55.9375 3.3125 C57.09572266 3.48410645 58.25394531 3.65571289 59.44726562 3.83251953 C128.04248573 14.33581062 193.18173508 43.84221074 244.37890625 90.97265625 C246.57561903 92.98155848 248.80299369 94.93764113 251.0625 96.875 C258.26483152 103.14942378 264.75112092 110.04913994 270.9375 117.3125 C271.75992188 118.24578125 272.58234375 119.1790625 273.4296875 120.140625 C278.61150296 126.06682567 283.43157017 132.16720668 287.9375 138.625 C288.62247559 139.59276367 288.62247559 139.59276367 289.32128906 140.58007812 C295.66703434 149.86815773 297.44375838 159.12275941 295.9375 170.3125 C291.56496217 185.98076057 280.79608471 192.2719428 267.32006836 199.9074707 C266.15101194 200.5635509 264.98181941 201.21938864 263.8125 201.875 C261.33064539 203.27359519 258.85055974 204.67530018 256.37109375 206.078125 C255.7493074 206.42941971 255.12752106 206.78071442 254.4868927 207.14265442 C250.34255572 209.49207147 246.24307583 211.90469466 242.16015625 214.359375 C241.09877441 214.99415771 240.03739258 215.62894043 238.94384766 216.28295898 C236.96196412 217.47256211 234.98589749 218.67193552 233.01708984 219.88305664 C222.63257001 226.08582232 212.48027003 228.72267722 200.5 226.6875 C190.63012877 224.19423985 184.14085335 218.04544732 177.9375 210.3125 C177.20660156 209.41917969 176.47570313 208.52585937 175.72265625 207.60546875 C174.19962378 205.74398462 172.67878716 203.88070173 171.16015625 202.015625 C165.53226532 195.1711601 159.78735745 188.93995524 152.9375 183.3125 C152.42864258 182.88598145 151.91978516 182.45946289 151.39550781 182.02001953 C116.65847319 152.95942739 74.91178977 135.4548451 29.9375 130.3125 C29.14561279 130.2182373 28.35372559 130.12397461 27.5378418 130.02685547 C18.83501588 129.10504027 10.11664606 129.06904165 1.375 129.0625 C0.56069519 129.06182526 -0.25360962 129.06115051 -1.09259033 129.06045532 C-23.5935025 129.08989453 -45.2374899 131.78057682 -67.0625 137.3125 C-67.89910156 137.52213379 -68.73570312 137.73176758 -69.59765625 137.94775391 C-100.42503427 145.88055186 -129.04408867 161.52661351 -153.0625 182.3125 C-153.85527344 182.99441406 -154.64804688 183.67632813 -155.46484375 184.37890625 C-167.54646532 195.01151648 -178.58119897 206.29744921 -188.0625 219.3125 C-188.7445752 220.24400879 -188.7445752 220.24400879 -189.44042969 221.19433594 C-227.48545647 273.61606983 -240.57748979 340.75480549 -230.55419922 404.37011719 C-222.84043287 450.53015293 -203.47446296 491.52300365 -171.0625 525.3125 C-170.47871582 525.92883301 -169.89493164 526.54516602 -169.29345703 527.18017578 C-159.62903422 537.34072401 -149.49560383 546.19620439 -138.0625 554.3125 C-137.44052734 554.75787109 -136.81855469 555.20324219 -136.17773438 555.66210938 C-88.76679814 589.32336486 -24.49338277 605.98195269 33.29052734 596.79345703 C78.3121401 588.78076096 121.31793249 571.29357313 156.9375 542.3125 C157.47858398 541.87437988 158.01966797 541.43625977 158.57714844 540.98486328 C192.72121458 513.17897716 215.17058943 476.34877014 225.61328125 433.73828125 C225.8390686 432.82582642 226.06485596 431.91337158 226.29748535 430.9732666 C226.84641444 428.75355733 227.39304892 426.53331105 227.9375 424.3125 C226.93327625 424.31526538 225.92905251 424.31803076 224.89439774 424.32087994 C200.43042337 424.38755467 175.96646082 424.43681338 151.5024147 424.46793652 C139.67166154 424.48338847 127.84096848 424.50444603 116.01025391 424.53881836 C105.69552022 424.56877189 95.38083008 424.58808715 85.06605411 424.59476548 C79.60726703 424.59866765 74.14860453 424.60780344 68.68985748 424.62969017 C63.54515106 424.65014939 58.40061978 424.65631479 53.25587654 424.65182304 C51.37421528 424.65264404 49.49254777 424.65855317 47.61092186 424.67011642 C32.82131583 424.75649665 19.57971018 424.30758198 8.19140625 413.68359375 C1.83997349 406.85699146 -1.15383042 398.56090547 -1.23950195 389.34155273 C-1.25233719 388.13607285 -1.26517242 386.93059296 -1.27839661 385.68858337 C-1.28947701 383.73705101 -1.28947701 383.73705101 -1.30078125 381.74609375 C-1.30485678 381.07947283 -1.3089323 380.41285191 -1.31313133 379.72603035 C-1.33396441 376.19260091 -1.34827397 372.6592099 -1.35766602 369.12573242 C-1.36868177 365.50356957 -1.40303221 361.88202929 -1.44283772 358.26008511 C-1.46918796 355.45193974 -1.47737431 352.64393808 -1.48094749 349.83568001 C-1.48809511 347.8600445 -1.51445913 345.88450797 -1.54133606 343.90904236 C-1.51423977 332.53965361 0.92749684 322.70919296 8.9375 314.3125 C16.26792696 307.74348195 24.10219869 304.19530815 34.0326395 304.18107224 C35.04189568 304.17723109 36.05115186 304.17338995 37.09099156 304.1694324 C38.19272597 304.17029888 39.29446038 304.17116537 40.42958069 304.17205811 C42.19350864 304.16760142 42.19350864 304.16760142 43.9930715 304.1630547 C47.25367067 304.15588288 50.51423771 304.15319604 53.77484357 304.15245724 C57.29308814 304.15060379 60.81132135 304.14305489 64.32955933 304.13632202 C72.02197083 304.12274881 79.71437712 304.11671529 87.4067986 304.11231136 C92.2129415 304.1095467 97.01908238 304.10530888 101.82522392 304.10080719 C115.13987254 304.08861484 128.45451955 304.07831611 141.76917362 304.0749321 C142.62111892 304.07471253 143.47306423 304.07449297 144.35082605 304.07426675 C145.63175699 304.07393933 145.63175699 304.07393933 146.93856531 304.0736053 C148.6689231 304.07316184 150.39928089 304.07271527 152.12963867 304.07226562 C152.98795111 304.0720442 153.84626354 304.07182277 154.73058545 304.07159463 C168.6284502 304.06764929 182.52626243 304.05020321 196.4241069 304.0269061 C210.70316192 304.00316385 224.98219062 303.99072891 239.2612657 303.98956418 C247.27418753 303.98864893 255.28704098 303.98293459 263.29994392 303.96474457 C270.12536078 303.94930461 276.95068811 303.94424593 283.77611912 303.95248267 C287.25509075 303.95637572 290.7338823 303.95552603 294.2128315 303.94142532 C297.99421919 303.92868844 301.77514891 303.93459277 305.55653381 303.94500732 C306.64265317 303.93695092 307.72877254 303.92889452 308.84780461 303.92059398 C322.90265317 304.01073347 334.17803633 307.81846882 344.625 317.3125 C355.31622322 328.4784667 357.14564986 341.07377552 357.125 355.9375 C357.12459213 357.03330383 357.12459213 357.03330383 357.12417603 358.15124512 C357.03029273 414.00955024 357.03029273 414.00955024 351.9375 440.3125 C351.65181152 441.81514404 351.65181152 441.81514404 351.36035156 443.34814453 C336.9521673 517.22061468 300.10450198 592.97640124 238.9375 639.3125 C237.63179248 640.33333209 236.32719757 641.35558814 235.0234375 642.37890625 C225.9390825 649.46921054 216.68409398 656.16305899 206.9375 662.3125 C206.22352051 662.76415527 205.50954102 663.21581055 204.77392578 663.68115234 C182.26370383 677.80511824 158.61769061 689.50039587 133.9375 699.3125 C133.10379883 699.64830078 132.27009766 699.98410156 131.41113281 700.33007812 C91.81384595 716.15577725 48.48725048 724.52954821 5.875 724.5625 C5.07947723 724.56317474 4.28395447 724.56384949 3.46432495 724.56454468 C-89.0510378 724.44187111 -179.90273388 694.36427338 -248.28515625 630.87109375 C-250.55180455 628.7829719 -252.84582891 626.75243504 -255.1875 624.75 C-261.94081599 618.88121396 -268.23095365 612.47917636 -274.0390625 605.67578125 C-275.66196927 603.78030134 -277.3037552 601.90822537 -278.9609375 600.04296875 C-290.82953016 586.62387723 -301.43901986 572.42124247 -311.0625 557.3125 C-311.42907715 556.73773926 -311.7956543 556.16297852 -312.17333984 555.57080078 C-364.06842589 473.40940165 -377.40118776 370.07129993 -356.296875 275.89599609 C-344.01415415 223.25038806 -320.2005749 173.55381556 -285.0625 132.3125 C-284.07146604 131.13554173 -283.08059074 129.95844985 -282.08984375 128.78125 C-277.44135629 123.28376996 -272.80705109 117.85872098 -267.61328125 112.86328125 C-265.94459941 111.19459941 -264.45204812 109.43435068 -262.9375 107.625 C-258.27165443 102.21471614 -252.93300492 97.51825168 -247.63769531 92.73925781 C-246.24674916 91.47938656 -244.86846428 90.20556719 -243.4921875 88.9296875 C-236.66436245 82.64268027 -229.45673039 76.912032 -222.0625 71.3125 C-221.38155273 70.7963916 -220.70060547 70.2802832 -219.99902344 69.74853516 C-201.52225138 55.84652045 -181.73351274 44.61651262 -161.0625 34.3125 C-159.88228271 33.71574463 -159.88228271 33.71574463 -158.67822266 33.10693359 C-110.07335794 8.79923299 -53.83934195 -0.18478875 0 0 Z " fill="#FEFEFE" transform="translate(2384.0625,575.6875)"/>
<path d="M0 0 C0.84615875 -0.00067474 1.6923175 -0.00134949 2.56411743 -0.00204468 C58.24125177 0.06769268 112.64107066 12.62963093 162.625 37.25 C163.54925781 37.7052002 164.47351562 38.16040039 165.42578125 38.62939453 C190.96595469 51.34077859 213.59176909 64.43974961 223.75 92.41015625 C229.04562954 109.59731107 226.33881448 128.93222667 218.625 144.8125 C212.1575359 156.13056218 203.18358717 165.1788229 191.625 171.25 C190.74199219 171.71921875 189.85898438 172.1884375 188.94921875 172.671875 C171.4823924 181.26626134 152.80411173 181.41208539 134.625 175.25 C128.48683323 172.70980268 122.81840491 169.36214277 117.0612793 166.07495117 C81.5072659 145.84212493 42.80331302 134.77516506 1.8125 134.875 C0.96494141 134.87554382 0.11738281 134.87608765 -0.75585938 134.87664795 C-51.70935651 135.0259631 -101.5380535 152.30265797 -141.375 184.25 C-142.86966797 185.43916016 -142.86966797 185.43916016 -144.39453125 186.65234375 C-158.07691616 197.76342795 -170.71734633 210.33467854 -181.13964844 224.56591797 C-182.38019748 226.25708542 -183.64547188 227.92745885 -184.9140625 229.59765625 C-219.83467249 276.24825131 -233.42628226 336.94245987 -226.375 394.25 C-219.47822754 441.00474314 -199.68405546 482.99054022 -168.375 518.25 C-167.6934082 519.02633789 -167.6934082 519.02633789 -166.99804688 519.81835938 C-161.78328442 525.7550477 -156.4572948 531.21258405 -150.375 536.25 C-149.52808594 536.98476562 -148.68117188 537.71953125 -147.80859375 538.4765625 C-134.11034549 550.21791815 -119.40374593 559.98581951 -103.375 568.25 C-102.25834961 568.83177002 -102.25834961 568.83177002 -101.11914062 569.42529297 C-47.92940238 596.83616715 15.07575536 600.43452218 71.78979492 582.45092773 C96.79970491 574.23567599 119.9093895 562.596454 140.625 546.25 C141.59566406 545.49074219 142.56632812 544.73148438 143.56640625 543.94921875 C150.54157758 538.36312848 157.12507334 532.37563313 163.625 526.25 C164.3571875 525.56035156 165.089375 524.87070313 165.84375 524.16015625 C190.59173623 500.14871723 212.40694366 464.80836134 220.625 431.25 C219.40249668 431.25553076 219.40249668 431.25553076 218.15529633 431.26117325 C198.26310979 431.34976854 178.37095758 431.41582794 158.47861481 431.45724869 C148.85855493 431.47781531 139.2386273 431.50582216 129.61865234 431.55175781 C121.22734116 431.59180723 112.83612582 431.61747562 104.4447217 431.62635398 C100.00743515 431.63153828 95.57042263 431.64359803 91.13322449 431.67292023 C86.94383426 431.70037658 82.75482697 431.70838506 78.5653553 431.70243073 C77.04012523 431.70351763 75.5148803 431.71128969 73.98972893 431.7268219 C54.72053102 431.91318295 36.0694549 427.38494381 21.86328125 413.55078125 C21.12464844 412.79152344 20.38601563 412.03226563 19.625 411.25 C18.56345703 410.21939453 18.56345703 410.21939453 17.48046875 409.16796875 C4.93145785 396.23504929 0.25663469 378.6102195 0.40625 361.01171875 C1.4591216 342.90608746 9.16337383 326.47780731 22.41796875 314.0859375 C41.74426036 298.00919935 62.19849659 296.9474319 86.13183594 296.95947266 C88.51155812 296.95348126 90.89127837 296.94667431 93.27099609 296.93911743 C99.70918147 296.92151343 106.14731362 296.91676444 112.58552074 296.91548586 C116.61465824 296.91449389 120.64378654 296.90991073 124.67292023 296.90449142 C138.02333554 296.88690335 151.37371887 296.87764887 164.72414586 296.87915237 C165.44198437 296.87923228 166.15982287 296.8793122 166.89941406 296.87939453 C167.61814108 296.87947629 168.3368681 296.87955805 169.07737473 296.87964229 C180.71853911 296.88045476 192.35957398 296.86132062 204.00070092 296.8331178 C215.98833881 296.80430737 227.9759137 296.79058194 239.96358705 296.79230535 C246.67988543 296.79296639 253.39602763 296.78720449 260.11229706 296.76594925 C266.43257158 296.74649156 272.75256048 296.74649394 279.07284546 296.76098251 C281.38177155 296.7630623 283.69071588 296.75841976 285.9996109 296.7462616 C310.00340688 296.62812867 328.83485425 300.59337055 346.96484375 317.421875 C351.65737308 322.20263993 354.98778513 327.25558128 358 333.1875 C358.32178223 333.81914063 358.64356445 334.45078125 358.97509766 335.1015625 C364.48069767 346.58442155 365.12342707 357.66893299 365 370.1875 C364.99302094 371.44362595 364.99302094 371.44362595 364.98590088 372.72512817 C364.47925818 450.86966064 336.11734865 529.66920165 286.625 590.25 C285.90699219 591.1575 285.18898438 592.065 284.44921875 593 C275.52857613 604.15476448 265.63055881 614.34318893 255.57989502 624.47033691 C254.58498785 625.47328786 253.59156535 626.47771423 252.59979248 627.48376465 C245.95925695 634.20969178 239.04615684 640.39162097 231.625 646.25 C230.47953089 647.17983542 229.33483813 648.11062927 228.19140625 649.04296875 C167.09055082 697.74885221 90.8824524 726.26461009 12.625 728.25 C11.7906543 728.27191406 10.95630859 728.29382812 10.09667969 728.31640625 C-79.22783784 730.27886361 -171.71482149 699.64521942 -237.8984375 638.515625 C-239.89727586 636.6870347 -241.92504678 634.91960629 -243.98046875 633.15625 C-248.8078989 628.9415408 -253.35366023 624.45741884 -257.88354492 619.92675781 C-259.30168284 618.51080053 -260.72796665 617.10301711 -262.15429688 615.6953125 C-268.33823344 609.52426809 -273.93217475 603.07673016 -279.375 596.25 C-280.42308398 595.0020388 -281.47586138 593.7579906 -282.53515625 592.51953125 C-308.22062862 562.12120809 -327.88823937 525.57954544 -341.375 488.25 C-341.68775879 487.3940625 -342.00051758 486.538125 -342.32275391 485.65625 C-349.5866996 465.57289294 -354.62527824 444.85549586 -358.1875 423.8125 C-358.38230957 422.666604 -358.57711914 421.52070801 -358.77783203 420.34008789 C-361.73832087 401.85072653 -362.75562156 383.45898066 -362.6875 364.75 C-362.68567719 363.7034021 -362.68385437 362.6568042 -362.68197632 361.57849121 C-362.63245634 344.62040008 -361.94843418 328.03705371 -359.375 311.25 C-359.10961426 309.50565674 -359.10961426 309.50565674 -358.83886719 307.72607422 C-349.66030607 249.20680244 -327.87562935 193.88048898 -292.375 146.25 C-291.97603516 145.71213867 -291.57707031 145.17427734 -291.16601562 144.62011719 C-276.27822344 124.63787115 -259.35404387 105.42568765 -240.375 89.25 C-239.44042969 88.43789063 -238.50585938 87.62578125 -237.54296875 86.7890625 C-171.74632003 29.93876763 -86.68447601 0.06290059 0 0 Z " fill="#FEFEFE" transform="translate(937.375,573.75)"/>
<path d="M0 0 C14.0013737 13.38763231 25.54428616 29.61729811 32.32299805 47.85009766 C32.58980377 48.5663028 32.8566095 49.28250793 33.13150024 50.02041626 C33.43391129 50.83595474 33.43391129 50.83595474 33.74243164 51.66796875 C33.74829788 50.79846085 33.75416412 49.92895294 33.76020813 49.03309631 C33.81828809 40.80939731 33.89045178 32.58596549 33.97814655 24.36252689 C34.02273456 20.1355031 34.06201561 15.90857311 34.08886719 11.68139648 C34.11501636 7.59632995 34.15549927 3.51162669 34.2056179 -0.57321358 C34.22220855 -2.12594623 34.23377115 -3.67874161 34.24004555 -5.23155022 C34.29305508 -17.15246508 35.04575968 -27.38129921 43.74243164 -36.33203125 C50.67385039 -41.78308711 57.48729447 -43.63465439 66.26708984 -43.60668945 C67.10207001 -43.61180038 67.93705017 -43.61691132 68.79733276 -43.62217712 C71.54603327 -43.63602861 74.29448171 -43.63511941 77.04321289 -43.6328125 C78.96363924 -43.63670245 80.88406474 -43.64103774 82.80448914 -43.64579773 C86.82671906 -43.65325083 90.84886119 -43.65297568 94.87109375 -43.64770508 C100.00885217 -43.64191794 105.14624922 -43.65882765 110.28394794 -43.68204975 C114.25009744 -43.69683089 118.21616083 -43.69765273 122.18233299 -43.69454002 C124.07563173 -43.69505124 125.96893555 -43.70025127 127.86220741 -43.71035194 C130.51823544 -43.72278139 133.17357168 -43.71588558 135.82958984 -43.7043457 C136.60132034 -43.71198944 137.37305084 -43.71963318 138.16816711 -43.72750854 C147.35473501 -43.63992581 154.14638896 -40.82226017 160.79321289 -34.5234375 C166.84235881 -27.72269429 167.89275737 -20.64999117 167.87665272 -11.81200314 C167.87900495 -10.9394825 167.88135718 -10.06696186 167.88378069 -9.1680012 C167.8904746 -6.22388113 167.89001235 -3.27980515 167.88960266 -0.3356781 C167.89290104 1.78833217 167.89662655 3.91234182 167.90074414 6.03635067 C167.9107752 11.88928954 167.91448271 17.74221816 167.91713345 23.59516442 C167.92103322 29.90143466 167.93061178 36.20769675 167.93934631 42.51396179 C167.95818517 57.031289 167.96836818 71.54861523 167.97680699 86.06595162 C167.98101343 93.23997683 167.98623544 100.41400121 167.99149152 107.58802571 C168.0093822 132.145581 168.02437805 156.70313653 168.03181171 181.26069736 C168.03228647 182.80249508 168.03276236 184.3442928 168.03323938 185.88609051 C168.03359394 187.03298033 168.03359394 187.03298033 168.03395567 188.20303964 C168.03515687 192.07684739 168.03637232 195.95065514 168.03759766 199.82446289 C168.03783781 200.59323183 168.03807796 201.36200076 168.03832538 202.15406572 C168.04621769 227.07740241 168.06964785 252.0006915 168.1021536 276.92400741 C168.13645762 303.27423058 168.1561634 329.62442591 168.15945596 355.97467178 C168.15987349 358.86783375 168.16035306 361.76099569 168.16087914 364.65415764 C168.16100233 365.36653563 168.16112552 366.07891363 168.16125244 366.81287883 C168.16358379 378.27349441 168.17924016 389.73405468 168.19972098 401.19465054 C168.21998501 412.71683053 168.22512035 424.23891953 168.21595035 435.76111866 C168.21139951 442.00242341 168.21333769 448.2435487 168.23271179 454.48482895 C168.25029982 460.20007033 168.24938089 465.91500072 168.2338145 471.6302452 C168.23143183 473.6962603 168.23579603 475.7622967 168.24764315 477.8282792 C168.31024987 489.46841966 168.09255418 499.1389105 162.11743164 509.48046875 C154.90807517 516.1206655 147.86343054 518.81094329 138.20703125 518.86083984 C137.33508118 518.86901733 136.4631311 518.87719482 135.5647583 518.88562012 C132.67477093 518.91045982 129.78483279 518.92699017 126.89477539 518.94140625 C125.41167972 518.94939177 125.41167972 518.94939177 123.89862251 518.9575386 C118.66110128 518.98426922 113.42360383 519.00364088 108.18603516 519.01806641 C103.86094919 519.03138386 99.53633744 519.05919628 95.21142578 519.10009766 C89.98186589 519.1495519 84.75273486 519.17420374 79.52295113 519.18129349 C77.53554162 519.1879858 75.54814091 519.20315489 73.5608654 519.2271843 C61.66768174 519.36273978 52.75290724 519.2993344 43.12133789 511.5625 C42.52192383 510.87542969 41.92250977 510.18835937 41.30493164 509.48046875 C40.6874707 508.80628906 40.07000977 508.13210938 39.43383789 507.4375 C34.81308284 499.87141379 34.28499057 491.63852226 34.23071289 482.97265625 C34.21276169 481.89919952 34.19481049 480.8257428 34.17631531 479.71975708 C34.12260125 476.32753298 34.08844176 472.9354464 34.05493164 469.54296875 C34.02172423 467.2278456 33.98723146 464.91274052 33.95141602 462.59765625 C33.86689761 456.95455055 33.79838497 451.31142616 33.74243164 445.66796875 C33.22447021 446.19640381 32.70650879 446.72483887 32.17285156 447.26928711 C13.55467745 466.21391461 13.55467745 466.21391461 3.74243164 473.66796875 C2.50664717 474.65318256 1.27239509 475.6403202 0.03930664 476.62890625 C-24.33032462 495.97645696 -52.20540249 511.29000133 -82.25756836 519.66796875 C-83.51996338 520.0227832 -83.51996338 520.0227832 -84.80786133 520.38476562 C-140.32372151 535.61076792 -201.31499038 528.67213325 -253.25756836 504.66796875 C-253.97928223 504.33539062 -254.70099609 504.0028125 -255.44458008 503.66015625 C-272.62811356 495.6409023 -288.45398869 485.49062282 -303.25756836 473.66796875 C-303.83394043 473.20874023 -304.4103125 472.74951172 -305.00415039 472.27636719 C-319.72971832 460.40597276 -333.90642452 446.82284685 -345.25756836 431.66796875 C-346.31867972 430.29680801 -347.37988635 428.925721 -348.44116211 427.5546875 C-368.89791336 400.80267557 -383.8967138 370.66280894 -394.25756836 338.66796875 C-394.54180664 337.80107422 -394.82604492 336.93417969 -395.11889648 336.04101562 C-409.78338847 290.56342241 -413.85261611 238.9938393 -407.25756836 191.66796875 C-407.1015918 190.53601074 -406.94561523 189.40405273 -406.78491211 188.23779297 C-402.0427139 154.97654167 -392.96201814 122.92011218 -378.25756836 92.66796875 C-377.87906738 91.88502441 -377.50056641 91.10208008 -377.1105957 90.29541016 C-365.62325686 66.82001477 -350.35181982 45.4878833 -332.25756836 26.66796875 C-331.60900879 25.98686035 -330.96044922 25.30575195 -330.29223633 24.60400391 C-320.00670699 13.85212815 -309.44084121 4.21865242 -297.25756836 -4.33203125 C-296.53069824 -4.84459473 -295.80382813 -5.3571582 -295.05493164 -5.88525391 C-218.28284597 -59.57026457 -103.34310718 -72.68717966 0 0 Z M-216.25756836 98.66796875 C-217.07483398 99.3640625 -217.89209961 100.06015625 -218.73413086 100.77734375 C-251.39289375 129.29056708 -271.21049514 173.62026761 -274.25756836 216.66796875 C-275.32653037 245.76280427 -273.34878491 272.82464985 -264.25756836 300.66796875 C-264.03907227 301.35584473 -263.82057617 302.0437207 -263.59545898 302.75244141 C-257.70657808 320.9943825 -248.26404588 338.72913999 -236.25756836 353.66796875 C-235.81026367 354.22661621 -235.36295898 354.78526367 -234.90209961 355.36083984 C-231.78301219 359.21929077 -228.5589442 362.96434503 -225.25756836 366.66796875 C-224.5653418 367.44527344 -223.87311523 368.22257812 -223.15991211 369.0234375 C-200.13435603 393.37995058 -165.69608226 409.45052239 -132.10180664 410.79418945 C-116.95052631 411.12193656 -102.06396252 411.23950162 -87.25756836 407.66796875 C-86.5324707 407.50167969 -85.80737305 407.33539062 -85.06030273 407.1640625 C-57.77629463 400.78598268 -34.5196283 386.77519626 -14.25756836 367.66796875 C-13.58338867 367.04664063 -12.90920898 366.4253125 -12.21459961 365.78515625 C19.1290481 335.88043848 33.92963856 289.26915844 35.06274414 246.9296875 C36.08429229 197.81380661 24.77440003 148.94343963 -9.72973633 112.28759766 C-37.22290486 83.70767334 -74.22641571 65.72286912 -114.17553711 64.46484375 C-151.69330081 63.90312607 -187.56479146 73.79436693 -216.25756836 98.66796875 Z " fill="#FEFEFE" transform="translate(3948.257568359375,774.33203125)"/>
<path d="M0 0 C0.73347656 0.63421875 1.46695313 1.2684375 2.22265625 1.921875 C4.16041871 3.60152596 6.08229161 5.29750538 8 7 C8.77730469 7.68449219 9.55460937 8.36898437 10.35546875 9.07421875 C19.12095058 16.86122819 27.48497718 24.99067728 35 34 C35.67820801 34.80751709 35.67820801 34.80751709 36.37011719 35.63134766 C63.64028396 68.20743506 63.64028396 68.20743506 64.4375 82.0625 C63.41612232 91.25489914 61.02172331 98.39415248 53.81884766 104.62548828 C47.16633876 109.6528205 39.47735297 113.33459931 32.15673828 117.27490234 C26.99825944 120.09391328 21.94034872 123.08039061 16.875 126.0625 C14.88321681 127.22725417 12.89103142 128.39132083 10.8984375 129.5546875 C9.92358398 130.12413086 8.94873047 130.69357422 7.94433594 131.28027344 C6.97270508 131.8477832 6.00107422 132.41529297 5 133 C4.02063477 133.57266602 3.04126953 134.14533203 2.03222656 134.73535156 C-0.80810961 136.39260869 -3.65332 138.04116922 -6.5 139.6875 C-7.34191895 140.18064697 -8.18383789 140.67379395 -9.05126953 141.18188477 C-18.29741376 146.5071484 -26.94610021 150.15543217 -37.71484375 147.2734375 C-46.75168097 143.93048719 -51.59465801 138.63106018 -56.8125 130.8125 C-61.44443507 124.05858442 -66.37026542 117.95831831 -72 112 C-73.15064027 110.64991542 -74.2966696 109.29588411 -75.4375 107.9375 C-87.13878658 94.6139896 -102.59870267 83.64242644 -118 75 C-119.12269287 74.36795654 -119.12269287 74.36795654 -120.26806641 73.72314453 C-146.22521563 59.26944037 -173.50764468 50.65137066 -203 47 C-204.0523584 46.85860596 -204.0523584 46.85860596 -205.12597656 46.71435547 C-213.71495719 45.68976303 -222.36263053 45.75624133 -231 45.75 C-231.84081116 45.74932526 -232.68162231 45.74865051 -233.5479126 45.74795532 C-248.20202831 45.76654795 -262.52208801 46.59299036 -277 49 C-277.98500488 49.16097168 -278.97000977 49.32194336 -279.98486328 49.48779297 C-321.65096833 56.57627399 -360.51116036 74.58682023 -391.34765625 103.53515625 C-393.45711064 105.49548868 -395.58945942 107.36054683 -397.8125 109.1875 C-401.63675771 112.4326033 -404.78471657 116.16365578 -408 120 C-408.77472656 120.89847656 -409.54945313 121.79695312 -410.34765625 122.72265625 C-447.44661141 166.24368711 -464.27882989 221.84248497 -464.1875 278.5 C-464.18659363 279.5484761 -464.18659363 279.5484761 -464.18566895 280.61813354 C-464.15793602 292.50558293 -463.65641265 304.21828085 -462 316 C-461.8146167 317.34070557 -461.8146167 317.34070557 -461.62548828 318.70849609 C-454.63784752 367.3340059 -433.88796414 410.59729318 -400 446 C-399.52981445 446.49741699 -399.05962891 446.99483398 -398.57519531 447.50732422 C-362.10503523 485.94050239 -310.9697699 505.71399557 -259 511 C-257.96101563 511.11214844 -256.92203125 511.22429688 -255.8515625 511.33984375 C-197.09277487 516.63538881 -136.40383168 501.97602209 -90.41796875 464.078125 C-76.70937716 452.29626599 -65.25277985 439.79030521 -54.84765625 425.00390625 C-49.56454229 417.52411999 -45.0565275 412.61755734 -36 410 C-25.2100312 408.33370102 -17.52957744 411.39020211 -8.42333984 416.61328125 C-5.72207353 418.15903912 -2.99774405 419.65858373 -0.26953125 421.15625 C13.39457175 428.69320427 26.91047058 436.4964123 40.3449707 444.43481445 C42.1427868 445.49465804 43.94621942 446.54502172 45.75463867 447.58666992 C54.11723537 452.46082089 61.0023443 458.02824879 63.6015625 467.75 C65.83923605 480.38627416 60.73894184 489.11602426 53.734375 499.171875 C49.65702143 504.91697545 45.4418752 510.53132702 41 516 C40.55946289 516.54495117 40.11892578 517.08990234 39.66503906 517.65136719 C32.40565075 526.53883691 24.46027362 534.74489424 16.375 542.875 C15.89398834 543.36127869 15.41297668 543.84755737 14.91738892 544.34857178 C8.29340962 551.02860154 1.38486113 557.16881881 -6 563 C-6.7513623 563.60537598 -7.50272461 564.21075195 -8.27685547 564.83447266 C-28.54719523 581.14985008 -50.5906218 594.80299707 -74.05371094 606.05712891 C-75.97721569 606.98896224 -77.88333119 607.95039081 -79.7890625 608.91796875 C-126.01571149 632.00525495 -179.43956302 641.25527383 -230.75 641.1875 C-231.60171783 641.18689575 -232.45343567 641.1862915 -233.33096313 641.18566895 C-323.97505726 641.01222184 -414.92472601 611.51691459 -481.15234375 547.93359375 C-482.2581691 546.81272316 -483.35772362 545.68561117 -484.44921875 544.55078125 C-486.11790059 542.88209941 -487.87814932 541.38954812 -489.6875 539.875 C-495.62184905 534.73950563 -500.77886037 528.84115985 -506 523 C-506.79978271 522.10933838 -506.79978271 522.10933838 -507.61572266 521.20068359 C-529.63190921 496.58734232 -547.91413256 468.87163517 -562 439 C-562.36335449 438.23075195 -562.72670898 437.46150391 -563.10107422 436.66894531 C-586.18151624 387.4372306 -596.25728225 333.83029883 -596.1875 279.625 C-596.18689575 278.75049194 -596.1862915 277.87598389 -596.18566895 276.97497559 C-596.0877423 224.47912698 -586.59494587 173.02056163 -565 125 C-564.60200195 124.1037793 -564.20400391 123.20755859 -563.79394531 122.28417969 C-543.7112518 77.36539509 -511.71114878 34.81449643 -474 3 C-472.65808594 1.824375 -472.65808594 1.824375 -471.2890625 0.625 C-396.09401268 -64.87099581 -296.15450337 -89.2339502 0 0 Z " fill="#FEFEFE" transform="translate(3413,659)"/>
<path d="M0 0 C1.94950799 -0.00405123 3.89901301 -0.00988218 5.84851074 -0.01739502 C9.91671864 -0.02619636 13.98413132 -0.0135286 18.05224609 0.01464844 C23.23712225 0.04883242 28.42013437 0.02912526 33.60494232 -0.00678635 C37.62536372 -0.02858647 41.64535146 -0.02151326 45.66578674 -0.00601959 C47.57613858 -0.00204973 49.48653128 -0.00681267 51.39683533 -0.02089691 C62.25640646 -0.0834137 71.67014556 0.01790801 80.78125 6.796875 C87.98640152 14.13087622 90.09120379 20.85794446 90.02175903 30.94638062 C90.02346788 31.85805579 90.02517673 32.76973096 90.02693737 33.70903265 C90.03022691 36.75841338 90.0192373 39.8075732 90.00830078 42.85693359 C90.00773655 45.04498286 90.00805346 47.2330325 90.00918579 49.42108154 C90.00975985 55.35858658 89.9979969 61.29601088 89.98403788 67.23349714 C89.97153939 73.43948425 89.97036071 79.64547319 89.96798706 85.85147095 C89.96212318 96.93424045 89.94767844 108.01697655 89.92870162 119.0997308 C89.91156852 129.15909604 89.899081 139.21845533 89.89111328 149.27783203 C89.89058783 149.93936871 89.89006239 150.60090539 89.88952102 151.28248863 C89.88691088 154.60132859 89.88438799 157.92016861 89.88189721 161.23900867 C89.86098943 188.75831807 89.82580846 216.27759445 89.78125 243.796875 C90.53334747 243.18040604 91.28544495 242.56393707 92.06033325 241.92878723 C93.04863129 241.11931137 94.03692932 240.30983551 95.05517578 239.47583008 C96.03414825 238.67373611 97.01312073 237.87164215 98.02175903 237.04524231 C126.9125145 213.50574501 160.5378225 199.4809939 196.78125 191.796875 C197.50151367 191.64089844 198.22177734 191.48492188 198.96386719 191.32421875 C256.23041215 179.26810402 324.07971572 187.80244159 373.78125 219.796875 C394.66583811 233.49591163 412.93869133 249.67088923 427.78125 269.796875 C428.56371094 270.85777344 429.34617188 271.91867187 430.15234375 273.01171875 C467.44900628 325.304613 475.13852834 387.33684272 475.05735838 449.86484468 C475.05482847 453.54074604 475.06397937 457.21662482 475.07139587 460.89251709 C475.08396588 468.03915156 475.08596002 475.18574817 475.08359561 482.33239184 C475.08179586 488.14154289 475.08359699 493.95068266 475.08782005 499.75983238 C475.08841524 500.59367942 475.08901043 501.42752646 475.08962366 502.28664159 C475.09083562 503.98150773 475.09204975 505.67637385 475.09326603 507.37123998 C475.10406834 523.15636827 475.10201121 538.94147503 475.09588119 554.72660448 C475.09069104 569.14795859 475.1020355 583.5692456 475.12097941 597.99058644 C475.14036083 612.86032566 475.14861501 627.7300331 475.14485615 642.59978503 C475.1429481 650.9241236 475.14539526 659.24840474 475.15957069 667.57273293 C475.17148762 674.64059156 475.17288409 681.70835715 475.16078053 688.77621708 C475.15490057 692.37663068 475.15376882 695.97687406 475.16578293 699.57727623 C475.17867119 703.48489511 475.16816023 707.39225714 475.1554718 711.29988098 C475.16284609 712.42856419 475.17022037 713.5572474 475.17781812 714.72013313 C475.1094843 724.73580841 473.49417788 733.99846691 466.21484375 741.38671875 C459.66933411 747.37578685 453.65929486 749.25031993 444.95947266 749.20092773 C443.67752266 749.21122261 443.67752266 749.21122261 442.36967468 749.22172546 C439.56138204 749.23993648 436.75365119 749.23616371 433.9453125 749.23046875 C431.981474 749.23503368 430.01763709 749.24034018 428.05380249 749.24635315 C423.94335429 749.25527338 419.83310048 749.25287395 415.72265625 749.24291992 C410.4715917 749.23143897 405.22120051 749.25163406 399.97022438 749.28083706 C395.91569805 749.29924073 391.86133178 749.29889817 387.80677414 749.29319954 C385.87160676 749.2930468 383.93642821 749.29905208 382.00130081 749.31149101 C379.28771798 749.32647605 376.57536253 749.31566894 373.86181641 749.29858398 C373.07295547 749.30825195 372.28409454 749.31791992 371.47132874 749.32788086 C363.00759668 749.21706769 355.70711798 745.85742179 349.78125 739.796875 C345.87316875 733.8870936 343.65930933 728.89120092 343.65096474 721.77018547 C343.64734039 720.75065375 343.64371604 719.73112203 343.63998187 718.68069541 C343.64158424 717.00303051 343.64158424 717.00303051 343.64321899 715.29147339 C343.64039771 714.10175245 343.63757643 712.91203152 343.63466966 711.68625844 C343.62776938 708.38201238 343.62529726 705.07781548 343.62461853 701.77356577 C343.62277827 698.20936356 343.61517027 694.64517348 343.60813904 691.08097839 C343.59660833 684.89927192 343.58836583 678.71756818 343.58201981 672.53585434 C343.57167579 662.74093592 343.55110283 652.94605125 343.52890015 643.15115356 C343.52141961 639.79555332 343.51400581 636.43995293 343.50661278 633.08435249 C343.50476221 632.24557523 343.50291165 631.40679797 343.501005 630.54260322 C343.48007043 620.99031951 343.46125117 611.43803204 343.44335938 601.88574219 C343.44172119 601.01259291 343.44008301 600.13944363 343.43839519 599.23983528 C343.41220734 585.14446579 343.39351202 571.0490937 343.37676747 556.9537103 C343.35926237 542.45084866 343.33032118 527.94803751 343.2918781 513.4452163 C343.26863955 504.52083825 343.25449822 495.59654266 343.25255047 486.67213412 C343.25041864 480.53130661 343.23730531 474.39056045 343.21607114 468.24976961 C343.20420567 464.72250917 343.19677819 461.19540997 343.20278358 457.66813087 C343.24823375 413.55633759 337.31176433 367.01563938 306.78125 332.796875 C306.33668457 332.29720215 305.89211914 331.7975293 305.43408203 331.28271484 C285.22851319 308.99531538 255.1189471 297.25533775 225.41992188 295.67089844 C190.62348227 294.55617065 159.51351506 303.72484063 133.03125 326.609375 C103.30952934 354.63395495 92.2282681 397.21514848 90.78125 436.796875 C90.60903964 445.5557472 90.64542446 454.31766313 90.65393662 463.07782185 C90.65623289 466.6299322 90.65264668 470.18203701 90.64961243 473.73414612 C90.64554229 479.08217115 90.64328326 484.43019175 90.64319643 489.77821835 C90.64299263 500.28186845 90.63047322 510.78547299 90.61358643 521.28910828 C90.61098098 522.9477284 90.60838216 524.60634854 90.6057899 526.26496869 C90.60185211 528.77741869 90.59790545 531.28986867 90.59392868 533.80231861 C90.57902033 543.24654723 90.5653746 552.69077719 90.55322266 562.13500977 C90.5521091 562.99716365 90.55099553 563.85931754 90.54984823 564.7475973 C90.5322469 578.73992436 90.52940646 592.73222252 90.53107306 606.72455881 C90.53235286 621.11922947 90.51460462 635.51379278 90.48005509 649.90842217 C90.45944046 658.7729899 90.45404074 667.63730015 90.4683834 676.50188144 C90.47685378 682.57338117 90.46708157 688.64468074 90.4430739 694.71613822 C90.42979496 698.21527809 90.42452954 701.71393753 90.44119453 705.21307373 C90.45506087 709.01245268 90.43817439 712.8105192 90.41375732 716.6098175 C90.4251127 717.7066142 90.43646808 718.80341089 90.44816756 719.93344384 C90.34604963 728.11925611 88.42988034 734.79604106 82.82083011 740.94653493 C76.11338963 747.42132552 68.88680303 749.25459929 59.83007812 749.18505859 C58.97369247 749.19031555 58.11730682 749.19557251 57.23497009 749.20098877 C54.42728999 749.21410385 51.62018505 749.20548097 48.8125 749.1953125 C46.84769584 749.19733568 44.88289242 749.20024914 42.91809082 749.20401001 C38.80941588 749.20842187 34.7009372 749.202039 30.59228516 749.18798828 C25.34012476 749.17089717 20.08842437 749.18074445 14.83628082 749.19870567 C10.7818051 749.20957428 6.72743745 749.20608306 2.67295837 749.1983223 C0.73697352 749.1963288 -1.19902132 749.19874953 -3.13499451 749.20576096 C-5.8461181 749.21342621 -8.55650876 749.2017006 -11.26757812 749.18505859 C-12.05846329 749.19113129 -12.84934845 749.19720398 -13.66419983 749.20346069 C-22.04396318 749.10872759 -28.30489238 746.41623581 -34.45703125 740.69921875 C-39.34977403 735.41592444 -41.3415585 729.90636527 -41.34755117 722.78354436 C-41.35082336 721.76486867 -41.35409555 720.74619298 -41.35746691 719.69664833 C-41.35598328 718.57706113 -41.35449966 717.45747393 -41.35297108 716.30395985 C-41.35532331 715.11004902 -41.35767554 713.91613819 -41.36009905 712.68604824 C-41.36562949 709.35619569 -41.36666002 706.02639574 -41.36582164 702.69654224 C-41.36599097 699.07985306 -41.37189526 695.46317256 -41.3770625 691.8464877 C-41.38639666 684.66609086 -41.39031192 677.48570019 -41.39258147 670.30529805 C-41.39554139 661.70756363 -41.40423751 653.10983742 -41.41299575 644.5121073 C-41.43384897 623.73021706 -41.44431102 602.94832539 -41.45312535 582.16642713 C-41.4573303 572.33815336 -41.46255247 562.5098802 -41.46780988 552.68160695 C-41.48570014 519.04832293 -41.50069717 485.41503874 -41.50813007 451.78175068 C-41.50860483 449.6699032 -41.50908072 447.55805573 -41.50955774 445.44620825 C-41.50979411 444.39890766 -41.51003049 443.35160707 -41.51027403 442.27257009 C-41.51147524 436.96629998 -41.51269069 431.66002987 -41.51391602 426.35375977 C-41.51415617 425.3007092 -41.51439632 424.24765864 -41.51464374 423.16269745 C-41.52253902 389.01004358 -41.54597552 354.85742442 -41.57847196 320.70478571 C-41.61275445 284.6092747 -41.63247971 248.51378402 -41.63577431 212.41825646 C-41.63619186 208.45734194 -41.63667143 204.49642743 -41.63719749 200.53551292 C-41.63732069 199.56020149 -41.63744388 198.58489006 -41.6375708 197.58002374 C-41.63990471 181.87154224 -41.6555752 166.16310098 -41.67603934 150.45463383 C-41.69627523 134.6712306 -41.70178523 118.88787581 -41.69226871 103.10446201 C-41.68704516 93.72367464 -41.69297147 84.34304833 -41.71480338 74.96228408 C-41.72828259 68.69797335 -41.72726003 62.43377384 -41.71440142 56.16946207 C-41.70748557 52.59893444 -41.70690032 49.02871535 -41.72396151 45.45821492 C-41.74219214 41.61166332 -41.729474 37.76556645 -41.71373463 33.91899586 C-41.72395683 32.81111449 -41.73417904 31.70323312 -41.74471101 30.56177959 C-41.67002103 22.23116921 -39.7695116 14.48085333 -33.90148926 8.19927979 C-23.58075114 -0.40208401 -12.74134567 -0.09393905 0 0 Z " fill="#FEFEFE" transform="translate(4796.21875,544.203125)"/>
<path d="M0 0 C0.94359375 0.85980469 1.8871875 1.71960938 2.859375 2.60546875 C30.73008868 29.2276389 52.09217003 71.18822714 53.5 110.0625 C53.12517244 119.29262863 49.97701004 125.65241328 43.5859375 132.2109375 C33.47540186 139.2058398 22.93259887 138.5894554 11.125 138.53125 C9.19026495 138.53394928 7.25553123 138.53783531 5.32080078 138.54284668 C1.27949012 138.54872122 -2.76146524 138.54024496 -6.80273438 138.52148438 C-11.96060474 138.49869615 -17.1176423 138.51183024 -22.27548218 138.53577423 C-26.26658302 138.55028765 -30.25748921 138.54560088 -34.24859619 138.53526306 C-36.14943543 138.53261107 -38.05029284 138.53581122 -39.95111084 138.54518127 C-63.11307468 138.63432495 -63.11307468 138.63432495 -71.63671875 130.7109375 C-76.58642944 124.49897967 -79.14516966 116.85699402 -81.5 109.375 C-85.03651931 98.2343319 -90.85509178 90.29938062 -99 82 C-99.60328125 81.37222656 -100.2065625 80.74445313 -100.828125 80.09765625 C-119.00371636 62.67279584 -147.55105723 58.45893744 -171.63378906 58.64648438 C-196.16457629 59.25132943 -222.33511001 63.58687342 -240 82 C-247.42642977 89.99207922 -249.63243184 100.47970336 -249.46801758 111.13525391 C-248.96306366 122.19122651 -244.35792922 130.8688237 -237 139 C-209.97525631 163.48497336 -168.25195689 171.08587005 -134.07421875 180.609375 C-6.36217092 216.22995734 -6.36217092 216.22995734 30 262 C30.40331543 262.50740723 30.80663086 263.01481445 31.22216797 263.53759766 C55.75849521 294.76157565 65.65418043 334.01567048 61.5 373.421875 C56.99408685 408.97421245 40.63105082 440.02615561 15 465 C14.49984375 465.54527344 13.9996875 466.09054687 13.484375 466.65234375 C-22.98060115 505.41619883 -84.65814901 522.4404405 -136.23712158 524.07070923 C-158.91285832 524.59645891 -181.57170539 524.73346535 -204 521 C-205.12341797 520.81727539 -206.24683594 520.63455078 -207.40429688 520.44628906 C-255.16815182 512.37072336 -300.66233852 492.60232989 -336 459 C-336.53625 458.49098145 -337.0725 457.98196289 -337.625 457.45751953 C-364.14669469 432.11242904 -387.83383657 395.02396595 -390.02734375 357.453125 C-389.92614096 348.3737886 -386.58831992 342.55800062 -380.2265625 336.23828125 C-372.85312945 329.58931214 -365.37354181 328.84893668 -355.65893555 328.85473633 C-354.43572601 328.84969841 -354.43572601 328.84969841 -353.18780518 328.84455872 C-350.50409401 328.83509531 -347.82044555 328.83310788 -345.13671875 328.83203125 C-343.26113357 328.82881532 -341.38554865 328.82545099 -339.50996399 328.82194519 C-335.58191344 328.81596534 -331.65388486 328.8141041 -327.72583008 328.81469727 C-322.70922186 328.81479879 -317.69275548 328.80115167 -312.67618084 328.78392506 C-308.80269228 328.77276921 -304.92923761 328.77077916 -301.05573463 328.77130699 C-299.20709558 328.77013209 -297.35845551 328.76573797 -295.50983238 328.75797462 C-292.91620518 328.74810272 -290.32288083 328.75108101 -287.72924805 328.75708008 C-286.97621902 328.75146057 -286.22319 328.74584106 -285.44734192 328.74005127 C-276.02515082 328.7950256 -268.20200335 330.71188723 -261 337 C-255.94659869 342.48621578 -253.7649796 349.09252962 -251.31298828 355.98046875 C-244.14292047 375.66699105 -227.62240826 390.19423474 -209 399 C-177.18270012 412.53879936 -137.34754292 413.88910309 -105 401 C-89.5164301 394.56730034 -77.49057579 385.78128878 -70.625 370 C-67.1308799 359.48815345 -67.52698909 347.61140329 -72.39453125 337.64453125 C-86.83974444 313.85034796 -119.9813709 305.15902477 -144.89453125 297.734375 C-145.5335928 297.54318903 -146.17265434 297.35200306 -146.83108139 297.15502357 C-160.39058721 293.10394774 -174.0387831 289.40627754 -187.70733643 285.74093628 C-218.60230391 277.44404106 -249.67463122 268.97742578 -279 256 C-279.84481934 255.62697754 -280.68963867 255.25395508 -281.56005859 254.86962891 C-303.13375685 245.22477752 -322.7918979 233.31621876 -340 217 C-340.474375 216.55817383 -340.94875 216.11634766 -341.4375 215.66113281 C-367.99757428 190.81293832 -381.52297285 156.25777626 -383.12426758 120.2019043 C-384.20924119 81.36119259 -373.93563969 45.52885443 -348 16 C-347.30519531 15.18402344 -346.61039063 14.36804688 -345.89453125 13.52734375 C-307.8752741 -30.17056383 -250.09801435 -49.29312841 -194 -55 C-192.10701172 -55.19916016 -192.10701172 -55.19916016 -190.17578125 -55.40234375 C-122.86165816 -61.10958067 -50.85628704 -46.56587716 0 0 Z " fill="#FEFEFE" transform="translate(4596,778)"/>
<path d="M0 0 C31.73474735 27.4892962 47.39589853 86.45073469 60.5625 125.1875 C60.93826172 126.28884277 61.31402344 127.39018555 61.70117188 128.52490234 C81.8646227 188.11541277 93.95148243 250.18040833 99.25 312.8125 C99.31093842 313.52606659 99.37187683 314.23963318 99.43466187 314.974823 C101.18270945 335.73638386 101.77079469 356.48180623 101.75 377.3125 C101.74939575 378.44368256 101.7487915 379.57486511 101.74816895 380.74032593 C101.7195604 400.6164622 101.20675145 420.37776844 99.5625 440.1875 C99.49933594 440.9496582 99.43617188 441.71181641 99.37109375 442.49707031 C92.74366174 521.21406913 75.11545363 598.85221813 24.5625 719.1875 C24.08683594 720.1986084 23.61117188 721.2097168 23.12109375 722.25146484 C13.10933995 743.49234169 1.4647993 759.90721063 -21.4375 768.1875 C-39.53997326 773.79587375 -57.91059605 772.16541006 -74.671875 763.50488281 C-90.19716688 755.03723094 -100.93999929 742.15242868 -106.3671875 725.30078125 C-112.9748627 702.23684828 -107.03587583 683.29217144 -96.68115234 662.45043945 C-60.8856028 590.33308264 -40.36988203 510.72563061 -32.125 378.875 C-32.12682281 377.57899872 -32.12864563 376.28299744 -32.13052368 374.94772339 C-32.18311477 352.57800891 -32.97232793 330.42395809 -35.4375 308.1875 C-35.52235657 307.41823181 -35.60721313 306.64896362 -35.69464111 305.85638428 C-43.9945092 231.62777534 -64.59666804 158.87005953 -97.48950195 91.7722168 C-106.89684498 72.57644793 -112.42198098 54.03003677 -106.875 32.5625 C-100.4203802 13.91582057 -88.83029009 0.70401158 -71.5 -8.5625 C-47.67153392 -19.93432683 -20.69597246 -15.54597004 0 0 Z " fill="#FEFEFE" transform="translate(1624.4375,559.8125)"/>
<path d="M0 0 C18.56595755 -0.8056925 34.84975926 6.57350229 48.69921875 18.40625 C94.05221893 60.57415398 106.29248536 161.39271942 112.3828125 219.28515625 C112.46421478 220.05609619 112.54561707 220.82703613 112.62948608 221.62133789 C114.59740984 240.55444559 115.27808629 259.37813878 115.2578125 278.41015625 C115.25720825 279.46429718 115.256604 280.51843811 115.25598145 281.60452271 C115.22922141 298.87306825 114.7815924 315.96497099 113.0703125 333.16015625 C112.94672363 334.42617676 112.82313477 335.69219727 112.69580078 336.99658203 C106.46741599 399.31700519 90.00087072 459.43233556 64.6953125 516.66015625 C64.32720459 517.50747314 63.95909668 518.35479004 63.57983398 519.2277832 C56.09758279 535.62803739 42.26802335 548.18397019 25.49609375 554.5078125 C7.61486225 560.19636847 -10.28778341 559.77960144 -27.2421875 551.41015625 C-42.3865917 543.56966544 -54.19986661 531.93067265 -60.21875 515.6796875 C-61.21127535 512.52002945 -62.12753051 509.37309687 -62.9296875 506.16015625 C-63.21972656 505.01353516 -63.21972656 505.01353516 -63.515625 503.84375 C-64.11695324 499.94646224 -64.15448253 496.09843308 -64.1796875 492.16015625 C-64.210625 490.99806641 -64.210625 490.99806641 -64.2421875 489.8125 C-64.31773715 478.19674147 -60.76993667 467.97944415 -55.8671875 457.59765625 C-30.57906578 401.9612584 -18.40684744 340.70496377 -18.6171875 279.72265625 C-18.61934265 278.58885529 -18.6214978 277.45505432 -18.62371826 276.28689575 C-18.81034668 214.81333026 -32.04012593 155.80980026 -56.3359375 99.41015625 C-64.99237777 79.0093058 -66.54038582 60.17192612 -58.4921875 39.4609375 C-50.97053035 23.02539338 -37.49604425 11.12988946 -20.9296875 4.16015625 C-14.01291849 1.79001007 -7.26297689 0.60279768 0 0 Z " fill="#FEFEFE" transform="translate(1397.9296875,658.83984375)"/>
</svg>
