<?xml version="1.0" encoding="UTF-8"?>
<svg version="1.1" xmlns="http://www.w3.org/2000/svg" width="444" height="128">
<path d="M0 0 C146.52 0 293.04 0 444 0 C444 42.24 444 84.48 444 128 C297.48 128 150.96 128 0 128 C0 85.76 0 43.52 0 0 Z " fill="#0C5692" transform="translate(0,0)"/>
<path d="M0 0 C8.35491494 7.11714976 13.89072732 14.5629093 16.5625 25.25 C16.8925 15.35 17.2225 5.45 17.5625 -4.75 C24.8225 -4.75 32.0825 -4.75 39.5625 -4.75 C40.0575 0.695 40.0575 0.695 40.5625 6.25 C41.51125 5.033125 42.46 3.81625 43.4375 2.5625 C49.21962983 -4.06579517 56.62039686 -7.31295705 65.32421875 -7.953125 C74.38354065 -8.09826767 82.71680075 -7.00632158 90.03125 -1.26171875 C97.71825402 6.32723675 98.85447556 15.94638124 99.5625 26.25 C99.77003906 25.57195312 99.97757813 24.89390625 100.19140625 24.1953125 C104.46915163 11.27258378 111.58384255 2.38306075 123.625 -4.0625 C134.99886029 -9.25879303 147.09304086 -9.09117441 158.765625 -4.97265625 C168.76564603 -1.01006288 176.61344603 6.67440669 181.0078125 16.47265625 C184.92277772 26.39429668 185.5625 33.03631093 185.5625 44.25 C164.7725 44.25 143.9825 44.25 122.5625 44.25 C124.07781959 53.8412641 124.07781959 53.8412641 129.375 62.4375 C130.096875 62.705625 130.81875 62.97375 131.5625 63.25 C132.67238281 63.75853516 132.67238281 63.75853516 133.8046875 64.27734375 C140.08681169 66.49299378 147.96536216 66.41226301 154.0625 63.625 C156.89547573 62.118372 157.78553766 60.90883341 159.60546875 58.125 C161.33973083 55.9767231 162.19146138 55.32613599 164.93017578 54.76416016 C167.76667666 54.65955813 170.54061239 54.72652301 173.375 54.875 C174.84356445 54.91560547 174.84356445 54.91560547 176.34179688 54.95703125 C178.75096621 55.02754352 181.15558819 55.12601432 183.5625 55.25 C179.36657213 66.40518305 174.38333325 75.11541936 163.49609375 80.87109375 C150.93657852 86.00841574 137.16839047 86.10318827 124.39453125 81.5078125 C111.69720822 75.86844972 106.35673842 67.99732452 100.5625 55.25 C100.2325 64.16 99.9025 73.07 99.5625 82.25 C91.6425 82.25 83.7225 82.25 75.5625 82.25 C75.5625 59.15 75.5625 36.05 75.5625 12.25 C61.89155353 11.60186773 61.89155353 11.60186773 51.71151733 17.17494202 C51.25757599 17.71662521 50.80363464 18.25830841 50.3359375 18.81640625 C49.80650543 19.36989243 49.27707336 19.9233786 48.7315979 20.49363708 C47.08831837 22.23034983 45.51506336 24.01612744 43.9375 25.8125 C42.81926145 27.01624518 41.69687816 28.2161538 40.5703125 29.41210938 C37.8409486 32.31205852 35.21409895 35.2706994 32.5625 38.25 C37.8425 38.58 43.1225 38.91 48.5625 39.25 C48.5625 53.44 48.5625 67.63 48.5625 82.25 C38.3325 82.25 28.1025 82.25 17.5625 82.25 C17.2325 71.69 16.9025 61.13 16.5625 50.25 C15.5725 53.55 14.5825 56.85 13.5625 60.25 C8.44575152 71.52495903 0.76363575 77.08144701 -10.2890625 82.0859375 C-22.32618495 86.53638724 -37.94537098 85.43313434 -49.5625 80.125 C-61.48990117 73.56587448 -67.28317483 64.50338578 -71.61328125 51.80078125 C-74.67056812 38.62981555 -72.60756599 23.92871311 -66.25390625 12.109375 C-59.77044237 1.90314799 -50.80670807 -3.04795704 -39.6875 -7.125 C-26.1762031 -9.78250146 -11.46520098 -8.00105643 0 0 Z " fill="#FBFCFD" transform="translate(73.4375,40.75)"/>
<path d="M0 0 C7.92 0 15.84 0 24 0 C24 8.58 24 17.16 24 26 C29.94 26 35.88 26 42 26 C42 31.28 42 36.56 42 42 C36.06 42 30.12 42 24 42 C24.09362689 48.60221834 24.19974259 55.20407399 24.31738281 61.8059082 C24.35564079 64.05129513 24.39049921 66.29674269 24.421875 68.54223633 C24.46759417 71.77186737 24.52557807 75.00108222 24.5859375 78.23046875 C24.59748871 79.23272995 24.60903992 80.23499115 24.62094116 81.2676239 C24.64081085 82.20822159 24.66068054 83.14881927 24.68115234 84.11791992 C24.69447601 84.94176682 24.70779968 85.76561371 24.7215271 86.61442566 C25.04365592 89.37398413 25.78018733 91.50824519 27 94 C31.26159382 96.13079691 37.40763702 95.04502317 42 95 C42 101.27 42 107.54 42 114 C37.78714601 115.40428466 33.78858505 115.22437686 29.375 115.25 C28.51003906 115.270625 27.64507812 115.29125 26.75390625 115.3125 C18.20431365 115.36377192 10.75075718 113.46489867 4 108 C0.35271915 103.0950361 -0.12727766 98.36578062 -0.11352539 92.38354492 C-0.11341209 90.73239937 -0.11341209 90.73239937 -0.11329651 89.04789734 C-0.10813522 87.8706459 -0.10297394 86.69339447 -0.09765625 85.48046875 C-0.0962413 84.26676102 -0.09482635 83.05305328 -0.09336853 81.80256653 C-0.08777665 77.93085248 -0.07522558 74.05919653 -0.0625 70.1875 C-0.05748395 67.56054771 -0.05292123 64.93359451 -0.04882812 62.30664062 C-0.03780987 55.87107141 -0.02055075 49.43554555 0 43 C-3.96 43 -7.92 43 -12 43 C-11.505 47.455 -11.505 47.455 -11 52 C-18.59 52 -26.18 52 -34 52 C-34.66 50.02 -35.32 48.04 -36 46 C-38.18231032 43.09025291 -40.59052674 42.14124628 -44 41 C-47.18368911 40.68517212 -47.18368911 40.68517212 -50.5 40.75 C-51.6034375 40.74484375 -52.706875 40.7396875 -53.84375 40.734375 C-56.96392334 40.99696385 -59.18304814 41.67561218 -62 43 C-62.0825 44.2375 -62.165 45.475 -62.25 46.75 C-62.31960938 47.79414062 -62.31960938 47.79414062 -62.390625 48.859375 C-61.82372121 51.96600776 -60.40021299 52.98948033 -58 55 C-55.09914584 56.11209118 -55.09914584 56.11209118 -51.8359375 56.78125 C-50.63066406 57.06613281 -49.42539062 57.35101563 -48.18359375 57.64453125 C-46.29833984 58.06798828 -46.29833984 58.06798828 -44.375 58.5 C-21.70725472 63.68728967 -21.70725472 63.68728967 -15 70 C-14.278125 70.66 -13.55625 71.32 -12.8125 72 C-7.98808934 77.32348763 -8.51463742 83.19688352 -8.69921875 90.01171875 C-9.2733455 97.62449034 -11.64734273 102.00409314 -17.0625 107.3125 C-28.54004647 116.80463892 -43.81173431 116.85873834 -58 116 C-68.4602701 114.61779186 -78.22080278 110.3342933 -84.81640625 101.8515625 C-88.52197346 96.05473459 -89 92.01238202 -89 85 C-81.41 85 -73.82 85 -66 85 C-65.01 87.97 -64.02 90.94 -63 94 C-57.54938115 98.85600588 -53.14827429 99.73600197 -45.91796875 99.43359375 C-41.56358268 98.78655646 -38.70051183 97.37391325 -35 95 C-33.44539695 91.89079391 -33.27279307 88.36916972 -34 85 C-37.0921238 81.8463414 -41.05664243 80.79513506 -45.1875 79.5625 C-45.88439941 79.347146 -46.58129883 79.13179199 -47.29931641 78.90991211 C-51.72830319 77.5746956 -56.16846318 76.49191065 -60.69165039 75.52954102 C-71.02975856 73.31811298 -79.84968885 70.12626816 -86 61 C-88.16858444 54.55057356 -88.27643165 45.86279799 -85.5 39.625 C-81.02945167 32.1265271 -73.68848011 27.3997793 -65.48046875 24.94921875 C-52.21716354 21.72951432 -35.41357379 22.39382708 -23.546875 29.4609375 C-19.89714028 32.04726031 -17.73460026 34.35386632 -15 38 C-14.67 34.04 -14.34 30.08 -14 26 C-9.38 26 -4.76 26 0 26 C0 17.42 0 8.84 0 0 Z " fill="#E3BE1E" transform="translate(368,9)"/>
<path d="M0 0 C9.62902799 8.20250533 16.03411888 17.53235954 17.5625 30.25 C18.41639534 43.46290679 17.22367681 56.12962147 9.5625 67.25 C9.12808594 67.92546875 8.69367188 68.6009375 8.24609375 69.296875 C2.66495824 76.81610717 -7.4764542 81.87321024 -16.515625 83.9609375 C-32.32667186 85.52513198 -46.42600407 83.84707039 -59.125 73.8125 C-66.87924319 66.58070582 -71.96894171 54.94762729 -72.703125 44.453125 C-72.64330737 29.31926473 -71.09746139 16.04076586 -60.3125 4.375 C-44.22696686 -10.57125424 -18.14000664 -12.65910795 0 0 Z " fill="#FBFCFD" transform="translate(73.4375,40.75)"/>
<path d="M0 0 C7.92 0 15.84 0 24 0 C24 29.04 24 58.08 24 88 C16.08 88 8.16 88 0 88 C0 58.96 0 29.92 0 0 Z " fill="#E5BF1D" transform="translate(414,35)"/>
<path d="M0 0 C5.35956814 2.96159693 8.23426644 7.58024075 10.41796875 13.19140625 C11.04443272 16.08277841 11.34381812 18.29458839 11.41796875 21.19140625 C11.46824219 22.19429687 11.51851562 23.1971875 11.5703125 24.23046875 C11.82845473 33.04860723 11.26029292 41.01956038 5.60546875 48.12890625 C0.97887646 52.90183844 -2.95533079 54.36187846 -9.58203125 54.56640625 C-16.14674294 54.36379169 -20.10914033 52.90295802 -24.76953125 48.25390625 C-31.50778189 39.78245729 -31.61030754 27.49676864 -30.58203125 17.19140625 C-28.89155397 10.53352649 -26.03981703 4.73499327 -20.41015625 0.59375 C-14.51574818 -2.32902969 -6.2384795 -1.95365394 0 0 Z " fill="#0D5693" transform="translate(55.58203125,52.80859375)"/>
<path d="M0 0 C1.28648437 -0.02835938 2.57296875 -0.05671875 3.8984375 -0.0859375 C9.3944358 0.59386103 12.41963594 2.90177727 15.875 7.125 C17.625 10.375 17.625 10.375 19.625 18.375 C6.755 18.375 -6.115 18.375 -19.375 18.375 C-18.24560998 9.33987985 -18.24560998 9.33987985 -15.0625 6 C-14.17111328 5.02933594 -14.17111328 5.02933594 -13.26171875 4.0390625 C-9.02355613 0.30105572 -5.62854343 0.05617309 0 0 Z " fill="#105894" transform="translate(215.375,51.625)"/>
<path d="M0 0 C7.92 0 15.84 0 24 0 C24 6.6 24 13.2 24 20 C16.08 20 8.16 20 0 20 C0 13.4 0 6.8 0 0 Z " fill="#E4BF1E" transform="translate(414,2)"/>
</svg>
